<mxfile host="app.diagrams.net" modified="2024-02-26T00:56:58.444Z" agent="Mozilla/5.0 (Windows NT 10.0; Win64; x64; rv:123.0) Gecko/20100101 Firefox/123.0" version="23.1.6" etag="apsCUBU4rq3O23NrOPtJ" type="github">
  <diagram name="Page-1" id="NZbzHBPe5YF4VIzsgg0A">
    <mxGraphModel>
      <root>
        <mxCell id="0" />
        <mxCell id="1" parent="0" />
        <mxCell id="2" value="Data Types" style="whiteSpace=wrap;strokeWidth=2;" vertex="1" parent="1">
          <mxGeometry x="289" width="92" height="34" as="geometry" />
        </mxCell>
        <mxCell id="3" value="Primitive" style="whiteSpace=wrap;strokeWidth=2;" vertex="1" parent="1">
          <mxGeometry x="223" y="84" width="79" height="34" as="geometry" />
        </mxCell>
        <mxCell id="4" value="Integers" style="whiteSpace=wrap;strokeWidth=2;" vertex="1" parent="1">
          <mxGeometry y="168" width="73" height="34" as="geometry" />
        </mxCell>
        <mxCell id="5" value="Floating-points" style="whiteSpace=wrap;strokeWidth=2;" vertex="1" parent="1">
          <mxGeometry x="123" y="168" width="122" height="34" as="geometry" />
        </mxCell>
        <mxCell id="6" value="Characters" style="whiteSpace=wrap;strokeWidth=2;" vertex="1" parent="1">
          <mxGeometry x="295" y="168" width="92" height="34" as="geometry" />
        </mxCell>
        <mxCell id="7" value="Boolean" style="whiteSpace=wrap;strokeWidth=2;" vertex="1" parent="1">
          <mxGeometry x="437" y="168" width="72" height="34" as="geometry" />
        </mxCell>
        <mxCell id="8" value="Non-Primitive" style="whiteSpace=wrap;strokeWidth=2;" vertex="1" parent="1">
          <mxGeometry x="352" y="84" width="113" height="34" as="geometry" />
        </mxCell>
        <mxCell id="9" value="" style="curved=1;startArrow=none;endArrow=block;exitX=0.18435560941202558;exitY=1;entryX=0.5001055077661442;entryY=0;" edge="1" parent="1" source="2" target="3">
          <mxGeometry relative="1" as="geometry">
            <Array as="points">
              <mxPoint x="263" y="59" />
            </Array>
          </mxGeometry>
        </mxCell>
        <mxCell id="10" value="" style="curved=1;startArrow=none;endArrow=block;exitX=-0.0016877379598496836;exitY=0.7165497506518593;entryX=0.4982876712328767;entryY=0;" edge="1" parent="1" source="3" target="4">
          <mxGeometry relative="1" as="geometry">
            <Array as="points">
              <mxPoint x="36" y="143" />
            </Array>
          </mxGeometry>
        </mxCell>
        <mxCell id="11" value="" style="curved=1;startArrow=none;endArrow=block;exitX=0.09743572416759659;exitY=1;entryX=0.4993169503133805;entryY=0;" edge="1" parent="1" source="3" target="5">
          <mxGeometry relative="1" as="geometry">
            <Array as="points">
              <mxPoint x="184" y="143" />
            </Array>
          </mxGeometry>
        </mxCell>
        <mxCell id="12" value="" style="curved=1;startArrow=none;endArrow=block;exitX=0.9027752913646918;exitY=1;entryX=0.5010869814001996;entryY=0;" edge="1" parent="1" source="3" target="6">
          <mxGeometry relative="1" as="geometry">
            <Array as="points">
              <mxPoint x="341" y="143" />
            </Array>
          </mxGeometry>
        </mxCell>
        <mxCell id="13" value="" style="curved=1;startArrow=none;endArrow=block;exitX=1.001898753492138;exitY=0.7326139690858874;entryX=0.5003472434149848;entryY=0;" edge="1" parent="1" source="3" target="7">
          <mxGeometry relative="1" as="geometry">
            <Array as="points">
              <mxPoint x="473" y="143" />
            </Array>
          </mxGeometry>
        </mxCell>
        <mxCell id="14" value="" style="curved=1;startArrow=none;endArrow=block;exitX=0.8266951539254829;exitY=1;entryX=0.5000737620665964;entryY=0;" edge="1" parent="1" source="2" target="8">
          <mxGeometry relative="1" as="geometry">
            <Array as="points">
              <mxPoint x="409" y="59" />
            </Array>
          </mxGeometry>
        </mxCell>
      </root>
    </mxGraphModel>
  </diagram>
</mxfile>
